<svg width="1920" height="670" viewBox="0 0 1920 670" fill="none" xmlns="http://www.w3.org/2000/svg">
<path d="M777.5 124V511V675H1053.5V511V124H1047V101.5H1038.5V85H1030V51.5H1027.5V85H994.5V101.5H977V124H777.5Z" fill="#56006F" stroke="#56006F"/>
<path d="M777 45.5V509.5V673H555.5V509.5V45.5H777Z" fill="#490363" stroke="#490363"/>
<path d="M454.5 267H367.5L368 480.5L367.5 671H554.5V480.5V278.5H454.5V267Z" fill="#530670" stroke="#530670"/>
<path d="M135.5 41.5H-0.5L-1 479.5V672H367V479.5V41.5H345.5V23H331.5V1H218.5V23H135.5V41.5Z" fill="#56006F" stroke="#56006F"/>
<path d="M1461 298H1260V511V676H1461V511V298Z" fill="#490363" stroke="#490363"/>
<path d="M1920.5 17H1741V510V675H1920.5V510V17Z" fill="#490363" stroke="#490363"/>
<path d="M1742.5 510.5V105H1732.5V99.5H1723V105H1695.5V99.5H1688V105H1657.5V99.5H1649V105H1623.5V99.5H1614V105H1585.5V99.5H1577V105H1549.5V99.5H1540.5V105H1512.5V99.5H1504V105H1476.5V99.5H1467.5V105H1461V510.5V675H1742.5V510.5Z" fill="#56006F" stroke="#56006F"/>
<path d="M1011 479.5L998 507.5V676.5H1921V507.5V479.5H1027.5V442.5H1921V437H1020V479.5H1011Z" fill="#42035E" stroke="#42035E"/>
<path d="M1416 475L1423.5 479H1405.5L1413.5 475V410H1411.5V404L1414.5 401L1417.5 404V410H1416V475Z" fill="#42035E" stroke="#42035E"/>
<path d="M1250 475L1257.5 479H1239.5L1247.5 475V410H1245.5V404L1248.5 401L1251.5 404V410H1250V475Z" fill="#42035E" stroke="#42035E"/>
<path d="M1582 475L1589.5 479H1571.5L1579.5 475V410H1577.5V404L1580.5 401L1583.5 404V410H1582V475Z" fill="#42035E" stroke="#42035E"/>
<path d="M1333 475L1340.5 479H1322.5L1330.5 475V410H1328.5V404L1331.5 401L1334.5 404V410H1333V475Z" fill="#42035E" stroke="#42035E"/>
<path d="M1665 475L1672.5 479H1654.5L1662.5 475V410H1660.5V404L1663.5 401L1666.5 404V410H1665V475Z" fill="#42035E" stroke="#42035E"/>
<path d="M1083 476L1090.5 480H1072.5L1080.5 476V411H1078.5V405L1081.5 402L1084.5 405V411H1083V476Z" fill="#42035E" stroke="#42035E"/>
<path d="M1499 475L1506.5 479H1488.5L1496.5 475V410H1494.5V404L1497.5 401L1500.5 404V410H1499V475Z" fill="#42035E" stroke="#42035E"/>
<path d="M1167 475L1174.5 479H1156.5L1164.5 475V410H1162.5V404L1165.5 401L1168.5 404V410H1167V475Z" fill="#42035E" stroke="#42035E"/>
<path d="M1830.5 475L1838 479H1820L1828 475V410H1826V404L1829 401L1832 404V410H1830.5V475Z" fill="#42035E" stroke="#42035E"/>
<path d="M1913.5 475L1921 479H1903L1911 475V410H1909V404L1912 401L1915 404V410H1913.5V475Z" fill="#42035E" stroke="#42035E"/>
<path d="M1747.5 475L1755 479H1737L1745 475V410H1743V404L1746 401L1749 404V410H1747.5V475Z" fill="#42035E" stroke="#42035E"/>
<path d="M657.5 480.5L670.5 508.5V674H-1V508.5V480.5H641V443.5H-1V438H648.5V480.5H657.5Z" fill="#42035E" stroke="#42035E"/>
<path d="M252.5 476L245 480H263L255 476V411H257V405L254 402L251 405V411H252.5V476Z" fill="#42035E" stroke="#42035E"/>
<path d="M418.5 476L411 480H429L421 476V411H423V405L420 402L417 405V411H418.5V476Z" fill="#42035E" stroke="#42035E"/>
<path d="M86.5 476L79 480H97L89 476V411H91V405L88 402L85 405V411H86.5V476Z" fill="#42035E" stroke="#42035E"/>
<path d="M335.5 476L328 480H346L338 476V411H340V405L337 402L334 405V411H335.5V476Z" fill="#42035E" stroke="#42035E"/>
<path d="M3.5 476L-4 480H14L6 476V411H8V405L5 402L2 405V411H3.5V476Z" fill="#42035E" stroke="#42035E"/>
<path d="M585.5 477L578 481H596L588 477V412H590V406L587 403L584 406V412H585.5V477Z" fill="#42035E" stroke="#42035E"/>
<path d="M169.5 476L162 480H180L172 476V411H174V405L171 402L168 405V411H169.5V476Z" fill="#42035E" stroke="#42035E"/>
<path d="M501.5 476L494 480H512L504 476V411H506V405L503 402L500 405V411H501.5V476Z" fill="#42035E" stroke="#42035E"/>
</svg>
