<svg width="1920" height="951" viewBox="0 0 1920 951" fill="none" xmlns="http://www.w3.org/2000/svg">
<path d="M1677 169.5H1623.5V792V957.5H1921V792V129H1781V150.5H1677V169.5Z" fill="#56177F" stroke="#56177F"/>
<path d="M177.5 233.5H-0.5V760.5V957H177.5V760.5V233.5Z" fill="#5D1583" stroke="#5D1583"/>
<path d="M576 194V240.5H581V194H582.5V190.5L581 189H576L574.5 190.5V194H576Z" fill="#5D1583"/>
<path d="M873.5 194V240.5H878.5V194H880V190.5L878.5 189H873.5L872 190.5V194H873.5Z" fill="#5D1583"/>
<path d="M675.5 194V240.5H680.5V194H682V190.5L680.5 189H675.5L674 190.5V194H675.5Z" fill="#5D1583"/>
<path d="M774.5 194V240.5H779.5V194H781V190.5L779.5 189H774.5L773 190.5V194H774.5Z" fill="#5D1583"/>
<path d="M581 240.5H576H481.5V789V961H880L879 789V240.5H878.5H878H876H873.5H779.5H774.5H680.5H675.5H581Z" fill="#5D1583"/>
<path d="M576 240.5V194H574.5V190.5L576 189H581L582.5 190.5V194H581V240.5M576 240.5H581M576 240.5H481.5M581 240.5H675.5M873.5 240.5V194H872V190.5L873.5 189H878.5L880 190.5V194H878.5V240.5M873.5 240.5H878.5M873.5 240.5H876M873.5 240.5H779.5M878.5 240.5H879M878.5 240.5H878M675.5 240.5V194H674V190.5L675.5 189H680.5L682 190.5V194H680.5V240.5M675.5 240.5H680.5M680.5 240.5H774.5M878 240.5V216H481.5V218H876V240.5M878 240.5H879M878 240.5H876M879 240.5V789L880 961H481.5V789V240.5M481.5 240.5H876M774.5 240.5V194H773V190.5L774.5 189H779.5L781 190.5V194H779.5V240.5M774.5 240.5H779.5" stroke="#5D1583"/>
<path d="M1058.5 505.5H1053.5V792.5V963.5H1752V792.5V34.5H1719V18H1677V1H1512V18H1470V34H1436V505.5H1358V439.5L1360 437.5V433L1358 431.5H1353L1351 433V437.5L1353 439.5V505.5H1260V439.5L1261.5 437.5V433L1260 431.5H1255L1253 433V437.5L1255 439.5V505.5H1162V439.5L1163.5 437.5V433L1162 431.5H1157L1155 433V437.5L1157 439.5V505.5H1063V439.5L1064.5 438V433.5L1063 431.5H1058.5L1056.5 433.5V438L1058.5 439.5V505.5Z" fill="#5D1583" stroke="#5D1583"/>
<path d="M186 90.5H177.5V791V954.5H481V791V194.5H483V189.5H477.5V91H437.5V71H410.5V50.5H253V71H186V90.5Z" fill="#5D1583" stroke="#56177F"/>
</svg>
